HIERARCHY
ROOT root
{
	OFFSET	0	13.1	24.9
	CHANNELS 6  Xposition Yposition Zposition Xrotation Yrotation Zrotation
	JOINT spine_1
	{
		OFFSET	0	9.99999	0
		CHANNELS 3  Xrotation Yrotation Zrotation
		JOINT spine_2
		{
			OFFSET	0	112	-10
			CHANNELS 3  Xrotation Yrotation Zrotation
			JOINT spine_3
			{
				OFFSET	0	206.5	19.3
				CHANNELS 3  Xrotation Yrotation Zrotation
				JOINT spine_4
				{
					OFFSET	0	110.4	14.6
					CHANNELS 3  Xrotation Yrotation Zrotation
					JOINT neck_1
					{
						OFFSET	0	71.8	-50.3
						CHANNELS 3  Xrotation Yrotation Zrotation
						JOINT neck_2
						{
							OFFSET	0	86.2	-25.8
							CHANNELS 3  Xrotation Yrotation Zrotation
							JOINT head_ee
							{
								OFFSET	0	179.8	-8.7
								CHANNELS 3  Xrotation Yrotation Zrotation
								End Site
								{
									OFFSET	1	0	0
								}
							}
						}
					}
					JOINT left_clavicle
					{
						OFFSET	-43.2	22.4	-70.8
						CHANNELS 3  Xrotation Yrotation Zrotation
						JOINT left_shoulder
						{
							OFFSET	-93.9	-5.79999	48.7
							CHANNELS 3  Xrotation Yrotation Zrotation
							JOINT left_elbow
							{
								OFFSET	-291.4	-30.8	15.2
								CHANNELS 3  Xrotation Yrotation Zrotation
								JOINT left_lowarm_twist
								{
									OFFSET	-110.7	-3.89999	13.6
									CHANNELS 3  Xrotation Yrotation Zrotation
									JOINT left_hand
									{
										OFFSET	-110.7	-3.89999	13.6
										CHANNELS 3  Xrotation Yrotation Zrotation
										JOINT left_ee
										{
											OFFSET	-80.8	-5.10001	12.1
											CHANNELS 3  Xrotation Yrotation Zrotation
											End Site
											{
												OFFSET	1	0	0
											}
										}
									}
								}
							}
						}
					}
					JOINT right_clavicle
					{
						OFFSET	43.2	22.4	-70.8
						CHANNELS 3  Xrotation Yrotation Zrotation
						JOINT right_shoulder
						{
							OFFSET	93.9	-5.79999	48.7
							CHANNELS 3  Xrotation Yrotation Zrotation
							JOINT right_elbow
							{
								OFFSET	291.4	-30.8	15.2
								CHANNELS 3  Xrotation Yrotation Zrotation
								JOINT right_lowarm_twist
								{
									OFFSET	110.7	-3.89999	13.6
									CHANNELS 3  Xrotation Yrotation Zrotation
									JOINT right_hand
									{
										OFFSET	110.7	-3.89999	13.6
										CHANNELS 3  Xrotation Yrotation Zrotation
										JOINT right_ee
										{
											OFFSET	80.8	-5.10001	12.1
											CHANNELS 3  Xrotation Yrotation Zrotation
											End Site
											{
												OFFSET	1	0	0
											}
										}
									}
								}
							}
						}
					}
				}
			}
		}
	}
	JOINT left_hip
	{
		OFFSET	-82.8	-127.5	0.300001
		CHANNELS 3  Xrotation Yrotation Zrotation
		JOINT left_knee
		{
			OFFSET	-28.2	-396.7	2.2
			CHANNELS 3  Xrotation Yrotation Zrotation
			JOINT left_ankle
			{
				OFFSET	-11.7	-411.3	35.4
				CHANNELS 3  Xrotation Yrotation Zrotation
				JOINT left_toes
				{
					OFFSET	0	-60	-88.6
					CHANNELS 3  Xrotation Yrotation Zrotation
					JOINT left_foot_ee
					{
						OFFSET	-22.5	-16.5	-42.2
						CHANNELS 3  Xrotation Yrotation Zrotation
						End Site
						{
							OFFSET	1	0	0
						}
					}
				}
			}
		}
	}
	JOINT right_hip
	{
		OFFSET	82.8	-127.5	0.300001
		CHANNELS 3  Xrotation Yrotation Zrotation
		JOINT right_knee
		{
			OFFSET	28.2	-396.7	2.2
			CHANNELS 3  Xrotation Yrotation Zrotation
			JOINT right_ankle
			{
				OFFSET	11.7	-411.3	35.4
				CHANNELS 3  Xrotation Yrotation Zrotation
				JOINT right_toes
				{
					OFFSET	0	-60	-88.6
					CHANNELS 3  Xrotation Yrotation Zrotation
					JOINT right_foot_ee
					{
						OFFSET	22.5	-16.5	-42.2
						CHANNELS 3  Xrotation Yrotation Zrotation
						End Site
						{
							OFFSET	1	0	0
						}
					}
				}
			}
		}
	}
}
MOTION
Frames: 12
Frame Time: 0.02
3261.11 769.159 -416.557 -161.064 -44.4874 -158.901 7.19473 -0.306662 -3.30258 7.20079 -0.0960072 -3.31538 7.19753 0.189723 -3.31135 7.18239 -0.335332 -3.29979 -27.1392 3.97986 6.81552 -27.0633 5.04951 8.50399 -0.0 0.0 -0.0 9.34163 7.30049 17.8706 -11.6175 -4.51064 54.9092 1.89729 -43.2199 0.751631 -9.49389 -0.429582 1.13383 -3.0619 18.1761 -11.2001 -0.0 0.0 -0.0 0.051919 -1.14545 -0.23543 -29.5057 9.7803 -68.4625 0.871434 23.3488 -0.180062 69.58 2.69691 7.9169 -0.856898 -13.9048 -0.348769 0.0 0.0 0.0 20.5058 1.20255 -5.93371 -2.72108 0.102434 0.404994 -5.29038 29.1837 0.836305 31.0077 -0.0 -0.0 -0.0 0.0 -0.0 31.4641 -25.1066 -3.7862 -8.01898 -0.246164 -1.20505 -21.2694 25.8631 -3.88374 16.6512 -0.0 -0.0 0.0 0.0 0.0 
3267.66 768.804 -412.561 -160.379 -43.5854 -158.58 7.46488 -0.246967 -3.11904 7.47029 -0.0480925 -3.12843 7.46468 0.206845 -3.12196 7.4512 -0.28856 -3.11547 -26.7751 3.74752 5.62039 -26.7399 5.02631 7.23842 -0.0 0.0 -0.0 9.36033 8.29405 17.8236 -12.0495 -3.97779 55.0024 1.91772 -43.526 0.765656 -10.4212 -0.481509 1.24048 -3.40532 18.0205 -13.4196 -0.0 0.0 -0.0 0.287969 -1.20068 -0.691836 -28.7423 8.87277 -68.5402 0.88384 23.6449 -0.185009 69.7765 2.71721 7.93185 -0.994455 -13.0044 0.90507 0.0 0.0 0.0 20.9452 6.15771 -5.96508 -1.92175 0.0743431 0.285539 -2.64679 29.1179 0.416274 33.4219 -0.0 -0.0 -0.0 0.0 -0.0 30.587 -25.4484 -4.63635 -5.69815 -0.192317 -0.852993 -21.5664 25.7648 -3.93332 16.8124 -0.0 -0.0 0.0 0.0 0.0 
3270.12 770.404 -400.64 -159.045 -46.3754 -156.561 7.46702 -0.428459 -3.14266 7.47249 -0.227718 -3.16353 7.47659 0.0297461 -3.17156 7.46286 -0.471266 -3.13653 -26.995 4.97892 5.40304 -27.0364 7.49927 7.72146 -0.0 0.0 -0.0 8.75574 8.21698 16.6937 -12.792 -7.31694 56.5221 2.03663 -45.2483 0.848849 -11.44 -0.540546 1.35668 -2.76724 16.3032 -10.3891 -0.0 0.0 -0.0 0.150679 -1.68493 -0.486494 -29.4221 10.4847 -69.1509 0.930946 24.757 -0.20432 69.2318 2.66104 7.89024 -1.10447 -14.5136 0.926358 0.0 0.0 0.0 21.417 2.33396 -6.97368 -5.45583 0.185873 0.816363 -2.43495 27.0211 0.377855 33.1477 -0.0 -0.0 -0.0 0.0 -0.0 30.5076 -25.9714 -4.39916 -6.22114 -0.205696 -0.932137 -21.2272 27.3013 -3.94549 17.8673 -0.0 -0.0 0.0 0.0 0.0 
3275.76 772.273 -384.937 -159.807 -47.3455 -156.886 7.30924 -0.361047 -3.15288 7.31476 -0.159792 -3.16944 7.31535 0.106968 -3.17166 7.30153 -0.395027 -3.14881 -26.8896 4.65791 6.02096 -26.8827 6.63459 8.10985 -0.0 0.0 -0.0 9.04728 8.00833 17.2567 -13.398 -4.60287 56.177 2.1517 -46.8208 0.931678 -11.4793 -0.542863 1.36114 -3.0891 17.5614 -11.71 -0.0 0.0 -0.0 0.3012 -3.045 -0.926001 -29.2448 9.69327 -68.9697 0.920637 24.5153 -0.200023 70.2177 2.76299 7.96515 -0.942712 -15.4153 -0.471 0.0 0.0 0.0 20.0198 1.98665 -7.27747 -6.07331 0.201988 0.909753 -1.57295 26.9934 0.243638 33.9359 -0.0 -0.0 -0.0 0.0 -0.0 28.5333 -26.0173 -5.05611 -7.63438 -0.238227 -1.14657 -21.0034 27.678 -3.9227 18.5648 -0.0 -0.0 0.0 0.0 0.0 
3279.62 772.824 -376.017 -160.033 -47.6604 -156.803 7.54421 -0.355427 -3.14038 7.54968 -0.154978 -3.15661 7.54968 0.0977617 -3.1589 7.53598 -0.402105 -3.13475 -26.4998 4.2521 6.53336 -26.4453 5.61548 8.3313 -0.0 0.0 -0.0 9.3714 9.39253 17.7464 -13.6451 -3.8653 55.9604 2.08182 -45.8766 0.881116 -11.2772 -0.530975 1.33819 -3.30282 18.6104 -12.4436 -0.0 0.0 -0.0 0.30339 -3.4272 -0.973269 -29.1372 9.70915 -69.3285 0.931998 24.7817 -0.204761 70.2919 2.77071 7.97072 -0.99222 -15.5751 -0.23534 0.0 0.0 0.0 20.1987 3.5459 -8.43459 -6.65796 0.216316 0.998331 -1.48914 28.7121 0.233064 34.1246 -0.0 -0.0 -0.0 0.0 -0.0 28.0357 -26.3568 -5.50303 -9.50791 -0.27318 -1.43192 -20.8519 28.1234 -3.91693 19.2077 -0.0 -0.0 0.0 0.0 0.0 
3281.56 772.999 -373.782 -159.843 -49.9213 -155.949 7.56499 -0.365825 -3.09922 7.57032 -0.16797 -3.11619 7.57109 0.080391 -3.11968 7.55775 -0.413073 -3.09328 -26.3329 4.70344 5.32804 -26.3544 6.94439 7.43893 -0.0 0.0 -0.0 9.17863 9.42688 17.3847 -16.1476 -5.50767 57.5045 2.39061 -49.814 1.11017 -11.2874 -0.531573 1.33935 -3.06673 19.0573 -10.7403 -0.0 0.0 -0.0 0.304121 -3.90211 -1.0282 -27.0772 9.48647 -69.3776 0.879475 23.5409 -0.183262 70.8932 2.83358 8.01547 -1.0681 -17.2443 -0.501275 0.0 0.0 0.0 19.2268 -1.47831 -8.06859 -9.15631 0.267332 1.37829 -0.273544 28.9621 0.0427752 34.9255 -0.0 -0.0 -0.0 0.0 -0.0 28.4784 -26.3015 -4.51312 -11.3985 -0.298972 -1.72086 -21.1251 27.5707 -3.94001 17.5783 -0.0 -0.0 0.0 0.0 0.0 
3282.1 773.649 -365.454 -158.679 -51.7634 -154.598 7.58258 -0.435129 -3.08413 7.58784 -0.238093 -3.10554 7.59241 0.00837813 -3.11463 7.5792 -0.483388 -3.07694 -27.1651 5.33775 4.62692 -27.2667 8.49874 7.21609 -0.0 0.0 -0.0 8.66673 8.78934 16.4861 -18.5322 -8.45338 58.0231 2.54396 -51.5588 1.22882 -9.31519 -0.419775 1.11318 -1.70396 17.1242 -3.42343 -0.0 0.0 -0.0 -0.509444 -2.69877 0.636142 -23.2987 9.27798 -72.3151 0.835944 22.4944 -0.16624 71.4986 2.89733 8.05985 -1.23136 -21.0063 -1.18198 0.0 0.0 0.0 17.9394 -8.9502 -8.01461 -9.82159 0.278119 1.4798 -0.618956 29.3783 0.0971251 33.2866 -0.0 -0.0 -0.0 0.0 -0.0 27.9943 -26.6269 -4.72646 -12.8173 -0.312059 -1.93815 -17.9468 27.4853 -3.34117 14.563 -0.0 -0.0 0.0 0.0 0.0 
3286.87 772.459 -359.56 -157.855 -53.8686 -153.744 7.50916 -0.558442 -3.03932 7.51423 -0.364004 -3.06866 7.52568 -0.116641 -3.08795 7.51288 -0.602636 -3.03088 -27.1124 5.86438 3.97757 -27.2825 9.75609 6.89944 -0.0 0.0 -0.0 8.37272 8.36816 15.9694 -20.6143 -10.3429 58.8893 2.71311 -53.3393 1.36294 -8.02528 -0.350904 0.963256 -1.03521 16.1605 0.227098 -0.0 0.0 -0.0 -1.2223 -2.14864 2.05651 -20.8272 8.98349 -73.806 0.800881 21.6397 -0.153067 72.1747 2.96909 8.10862 -1.29053 -22.7002 -1.58756 0.0 0.0 0.0 16.9106 -14.1206 -7.78538 -10.2843 0.284927 1.55048 -0.89983 29.9111 0.141791 33.7364 -0.0 -0.0 -0.0 0.0 -0.0 27.5748 -26.2936 -4.26421 -13.7653 -0.317803 -2.08349 -15.4974 28.2911 -2.91116 12.5262 -0.0 -0.0 0.0 0.0 0.0 
3288.56 772.233 -356.038 -157.384 -54.7546 -153.324 7.47082 -0.653609 -3.06337 7.47593 -0.45745 -3.09871 7.49254 -0.205705 -3.1255 7.47959 -0.696508 -3.05391 -27.1158 6.05007 2.60424 -27.3546 10.6378 5.73059 -0.0 0.0 -0.0 8.09963 8.03664 15.4826 -22.258 -11.9482 59.6426 2.69396 -53.1449 1.3476 -7.61449 -0.329684 0.915195 -0.540526 16.7515 3.50858 -0.0 0.0 -0.0 -1.55801 -1.14362 2.84244 -19.0379 8.71155 -74.9565 0.778694 21.0937 -0.144983 72.1141 2.96264 8.10428 -1.38763 -23.6005 -1.43076 0.0 0.0 0.0 16.3052 -17.8302 -7.73127 -10.5461 0.288524 1.59048 -2.26539 29.946 0.358015 33.4175 -0.0 -0.0 -0.0 0.0 -0.0 27.9109 -26.0943 -3.74333 -14.8231 -0.321372 -2.24574 -11.704 27.5931 -2.17016 11.5702 -0.0 -0.0 0.0 0.0 0.0 
3292.74 771.803 -353.919 -155.097 -56.5066 -151.313 7.45816 -0.687453 -3.12105 7.46344 -0.487562 -3.15841 7.4819 -0.230355 -3.18748 7.46847 -0.730623 -3.11123 -24.9952 6.33506 2.2142 -25.2389 11.2827 5.28071 -0.0 0.0 -0.0 8.10175 7.59173 15.5116 -24.1832 -12.971 60.5582 2.72484 -53.4576 1.37236 -6.2875 -0.263504 0.758935 -0.0348951 14.9629 5.90841 -0.0 0.0 -0.0 -1.93447 -1.82469 3.45917 -17.368 8.51311 -75.0464 0.76036 20.6393 -0.138452 72.3009 2.98256 8.11763 -1.34508 -24.1103 -1.901 0.0 0.0 0.0 17.1866 -20.9021 -7.49362 -10.7932 0.291752 1.62826 -3.06652 30.0487 0.485695 32.4611 -0.0 -0.0 -0.0 0.0 -0.0 27.999 -25.8115 -3.23541 -13.9195 -0.318509 -2.10713 -11.2561 27.956 -2.09565 10.1645 -0.0 -0.0 0.0 0.0 0.0 
3303.37 770.719 -348.523 -153.866 -57.7441 -150.002 7.67408 -0.686696 -3.19125 7.67961 -0.482346 -3.22842 7.69764 -0.231762 -3.25599 7.68362 -0.742815 -3.17867 -23.4474 6.53525 1.27171 -23.711 12.04 4.33359 -0.0 0.0 -0.0 8.24527 8.9651 15.695 -25.3915 -13.6025 61.1506 2.4849 -50.9021 1.18277 -5.87544 -0.243694 0.71011 0.263988 15.543 7.9967 -0.0 0.0 -0.0 -2.1284 -1.08949 3.94634 -16.9193 8.04577 -74.861 0.707458 19.3132 -0.120378 72.0207 2.95269 8.09758 -1.51788 -24.5543 -1.12041 0.0 0.0 0.0 18.1281 -19.4083 -7.47233 -12.1021 0.306135 1.82858 -4.70587 29.1753 0.743136 32.6586 -0.0 -0.0 -0.0 0.0 -0.0 27.4811 -25.469 -2.93488 -14.7945 -0.321315 -2.24136 -7.08947 25.9714 -1.27874 9.68534 -0.0 -0.0 0.0 0.0 0.0 
3307.84 769.922 -349.137 -152.467 -59.1594 -149.1 7.78328 -0.69322 -3.29002 7.78917 -0.482582 -3.3274 7.80728 -0.230793 -3.35425 7.79239 -0.757353 -3.27586 -23.2437 6.63511 1.56364 -23.5035 12.0975 4.62768 -0.0 0.0 -0.0 8.32942 6.93004 15.9759 -26.0277 -14.5473 62.572 2.11888 -46.3814 0.907833 -5.81852 -0.240985 0.703355 0.434897 16.1061 9.2745 -0.0 0.0 -0.0 -2.47803 -0.867622 4.65644 -16.2737 7.86183 -74.1411 0.799921 21.6162 -0.152713 72.3938 2.99247 8.12424 -1.322 -24.7599 -2.3198 0.0 0.0 0.0 17.5512 -19.1683 -6.22206 -10.9836 0.294129 1.65738 -5.17048 29.3352 0.818006 32.8179 -0.0 -0.0 -0.0 0.0 -0.0 28.1443 -25.0659 -1.73694 -15.0198 -0.321706 -2.27593 -5.50399 24.4585 -0.972227 10.2813 -0.0 -0.0 0.0 0.0 0.0 
